<?xml version="1.0" encoding="UTF-8" standalone="no"?>
<!DOCTYPE svg PUBLIC "-//W3C//DTD SVG 1.1//EN" "http://www.w3.org/Graphics/SVG/1.1/DTD/svg11.dtd">
<svg width="100%" height="100%" viewBox="0 0 816 225" version="1.1" xmlns="http://www.w3.org/2000/svg" xmlns:xlink="http://www.w3.org/1999/xlink" xml:space="preserve" xmlns:serif="http://www.serif.com/" style="fill-rule:evenodd;clip-rule:evenodd;stroke-linejoin:round;stroke-miterlimit:2;">
    <g transform="matrix(1,0,0,1,-6128.896083,-1859.1569)">
        <g transform="matrix(1,0,0,1,2977.940483,1032.295996)">
            <g transform="matrix(1.307899,0,0,1.307899,2150.26799,591.855675)">
                <path d="M863.022,234.831C863.022,233.367 863.604,231.962 864.639,230.926C871.416,224.149 897.835,197.73 912.201,183.365C913.78,181.785 916.156,181.313 918.22,182.167C920.283,183.022 921.629,185.036 921.629,187.27C921.629,223.038 921.629,320.043 921.629,344.235C921.629,345.7 921.047,347.105 920.011,348.141C918.976,349.176 917.571,349.758 916.106,349.758C904.925,349.758 879.725,349.758 868.545,349.758C865.494,349.758 863.022,347.286 863.022,344.236C863.022,323.238 863.022,248.85 863.022,234.831Z" style="fill:rgb(255,67,70);"/>
            </g>
            <g transform="matrix(1.307899,0,0,1.307899,2060.536687,591.855675)">
                <path d="M921.629,304.513C921.629,329.501 901.372,349.758 876.384,349.758C861.553,349.758 846.919,349.758 839.241,349.758C837.776,349.758 836.371,349.176 835.336,348.141C834.3,347.105 833.718,345.7 833.718,344.235C833.718,333.054 833.718,307.855 833.718,296.674C833.718,295.209 834.3,293.804 835.336,292.769C836.371,291.733 837.776,291.151 839.241,291.151C843.248,291.151 848.771,291.151 853.485,291.151C856.014,291.151 858.44,290.146 860.228,288.358C862.017,286.569 863.022,284.144 863.022,281.615C863.022,260.785 863.022,211.178 863.022,187.27C863.022,185.036 864.367,183.022 866.431,182.167C868.495,181.313 870.87,181.785 872.45,183.365C886.815,197.73 913.235,224.149 920.011,230.926C921.047,231.962 921.629,233.367 921.629,234.831C921.629,243.637 921.629,276.263 921.629,304.513Z" style="fill:rgb(255,67,70);"/>
            </g>
        </g>
        <g transform="matrix(1,0,0,1,3418.216217,847.265819)">
            <g transform="matrix(0.3915,0,0,0.385003,2490.276623,735.974759)">
                <path d="M1197.514,978.534L1197.514,929.662L1259.861,929.662C1259.861,929.662 1259.861,828.077 1259.861,766.114L1305.838,719.361L1320.537,719.361L1320.537,932.884C1320.537,948.338 1315.908,959.81 1306.65,967.302C1297.396,974.79 1285.473,978.534 1270.88,978.534L1197.514,978.534Z" style="fill:rgb(250,245,237);fill-rule:nonzero;"/>
            </g>
            <g transform="matrix(0.3915,0,0,0.385003,2490.276623,735.974759)">
                <path d="M1430.339,981.879C1418.044,981.879 1406.947,979.84 1397.049,975.763C1387.154,971.685 1378.694,965.886 1371.669,958.364C1364.647,950.843 1359.262,941.84 1355.515,931.356C1351.771,920.872 1349.899,909.254 1349.899,896.504L1349.899,869.534C1349.899,852.469 1353.182,837.565 1359.749,824.822C1366.315,812.075 1375.627,802.128 1387.685,794.981C1399.744,787.83 1413.962,784.254 1430.339,784.254C1443.617,784.254 1455.424,786.861 1465.76,792.075C1476.099,797.29 1496.3,817.102 1501.195,825.92L1503.451,825.92L1496.395,787.598L1548.696,787.598L1548.696,978.534L1496.395,978.534L1490.774,952.559L1488.611,952.559C1483.705,961.618 1476.085,968.769 1465.749,974.013C1455.413,979.257 1443.61,981.879 1430.339,981.879ZM1450.988,939.05C1460.031,939.05 1468.049,937.048 1475.041,933.045C1482.034,929.038 1487.302,923.525 1490.845,916.507L1490.845,849.409C1487.302,842.506 1482.034,837.051 1475.041,833.044C1468.049,829.037 1460.031,827.033 1450.988,827.033C1442.63,827.033 1435.345,828.6 1429.132,831.733C1422.922,834.862 1418.117,839.298 1414.715,845.042C1411.318,850.786 1409.619,857.773 1409.619,866.001L1409.619,900.131C1409.619,908.075 1411.318,915.006 1414.715,920.924C1418.117,926.842 1422.922,931.343 1429.132,934.428C1435.345,937.509 1442.63,939.05 1450.988,939.05Z" style="fill:rgb(250,245,237);fill-rule:nonzero;"/>
            </g>
            <g transform="matrix(0.3915,0,0,0.385003,2490.276623,735.974759)">
                <path d="M1641.018,978.534L1570.487,787.598L1629.972,787.598L1670.364,909.825L1675.98,932.911L1678.312,932.911L1683.764,909.825L1724.205,787.598L1783.69,787.598L1713.504,978.534L1641.018,978.534Z" style="fill:rgb(250,245,237);fill-rule:nonzero;"/>
            </g>
            <g transform="matrix(0.3915,0,0,0.385003,2490.276623,735.974759)">
                <path d="M1805.432,978.534C1805.432,978.534 1805.432,827.508 1805.432,794.092L1811.818,787.598C1826.836,787.598 1863.141,787.598 1863.141,787.598L1863.141,978.534L1805.432,978.534ZM1805.339,763.612L1805.339,716.661L1863.19,716.661L1863.19,763.612L1805.339,763.612Z" style="fill:rgb(250,245,237);fill-rule:nonzero;"/>
            </g>
            <g transform="matrix(0.3915,0,0,0.385003,2490.276623,735.974759)">
                <path d="M1989.993,982.162C1974.606,982.162 1960.723,980.068 1948.344,975.879C1935.969,971.691 1925.364,965.671 1916.529,957.82C1907.694,949.969 1900.914,940.435 1896.191,929.217C1891.467,918 1889.106,905.42 1889.106,891.477L1889.106,874.345C1889.106,855.762 1893.259,839.728 1901.566,826.244C1909.873,812.757 1921.589,802.339 1936.714,794.992C1951.842,787.644 1969.596,783.971 1989.976,783.971C2004.868,783.971 2018.312,786.048 2030.308,790.203C2042.305,794.359 2052.611,800.362 2061.228,808.213C2069.848,816.064 2076.467,825.468 2081.085,836.427C2085.707,847.385 2088.017,859.676 2088.017,873.301L2088.017,897.57L1939.314,897.57L1939.314,876.853L2034.018,864.057L2029.423,869.557L2029.423,857.774C2029.423,850.797 2027.805,844.759 2024.567,839.66C2021.329,834.556 2016.764,830.616 2010.872,827.839C2004.983,825.061 1997.967,823.672 1989.823,823.672C1981.371,823.672 1974.027,825.133 1967.792,828.055C1961.557,830.973 1956.79,835.079 1953.49,840.371C1950.191,845.659 1948.541,851.919 1948.541,859.152L1948.541,906.719C1948.541,913.704 1950.26,919.89 1953.698,925.279C1957.136,930.663 1962.023,934.833 1968.36,937.789C1974.697,940.744 1982.17,942.221 1990.779,942.221C2001.188,942.221 2009.788,940.227 2016.58,936.239C2023.372,932.25 2027.708,926.606 2029.587,919.307L2086.111,919.307C2084.152,932.309 2078.758,943.501 2069.93,952.881C2061.106,962.258 2049.845,969.484 2036.148,974.557C2022.451,979.627 2007.066,982.162 1989.993,982.162Z" style="fill:rgb(250,245,237);fill-rule:nonzero;"/>
            </g>
            <g transform="matrix(0.3915,0,0,0.385003,2635.230535,857.835278)">
                <path d="M1989.993,982.162C1974.606,982.162 1960.723,980.068 1948.344,975.879C1935.969,971.691 1925.364,965.671 1916.529,957.82C1907.694,949.969 1900.914,940.435 1896.191,929.217C1891.467,918 1889.106,905.42 1889.106,891.477L1889.106,874.345C1889.106,855.762 1893.259,839.728 1901.566,826.244C1909.873,812.757 1921.589,802.339 1936.714,794.992C1951.842,787.644 1969.596,783.971 1989.976,783.971C2004.868,783.971 2018.312,786.048 2030.308,790.203C2042.305,794.359 2052.611,800.362 2061.228,808.213C2069.848,816.064 2076.467,825.468 2081.085,836.427C2085.707,847.385 2088.017,859.676 2088.017,873.301L2088.017,897.57L1939.314,897.57L1939.314,876.853L2034.018,864.057L2029.423,869.557L2029.423,857.774C2029.423,850.797 2027.805,844.759 2024.567,839.66C2021.329,834.556 2016.764,830.616 2010.872,827.839C2004.983,825.061 1997.967,823.672 1989.823,823.672C1981.371,823.672 1974.027,825.133 1967.792,828.055C1961.557,830.973 1956.79,835.079 1953.49,840.371C1950.191,845.659 1948.541,851.919 1948.541,859.152L1948.541,906.719C1948.541,913.704 1950.26,919.89 1953.698,925.279C1957.136,930.663 1962.023,934.833 1968.36,937.789C1974.697,940.744 1982.17,942.221 1990.779,942.221C2001.188,942.221 2009.788,940.227 2016.58,936.239C2023.372,932.25 2027.708,926.606 2029.587,919.307L2086.111,919.307C2084.152,932.309 2078.758,943.501 2069.93,952.881C2061.106,962.258 2049.845,969.484 2036.148,974.557C2022.451,979.627 2007.066,982.162 1989.993,982.162Z" style="fill:rgb(250,245,237);fill-rule:nonzero;"/>
            </g>
            <g transform="matrix(0.3915,0,0,0.385003,2490.276623,735.974759)">
                <path d="M2113.447,978.534L2113.447,787.598L2166.032,787.598L2158.059,827.319L2160.413,827.319C2164.78,816.732 2182.824,796.331 2189.38,791.709C2195.939,787.087 2204.479,784.776 2215,784.776L2226.494,784.776L2229.384,838.41L2207.893,838.41C2201.52,838.41 2196.123,839.236 2191.701,840.887C2187.284,842.539 2183.489,844.961 2180.317,848.153C2177.149,851.345 2174.095,855.343 2171.156,860.146L2171.156,978.534L2113.447,978.534Z" style="fill:rgb(250,245,237);fill-rule:nonzero;"/>
            </g>
            <g transform="matrix(0.3915,0,0,0.385003,2349.98086,857.835278)">
                <path d="M2113.447,978.534L2113.447,787.598L2166.032,787.598L2158.059,827.319L2160.413,827.319C2164.78,816.732 2182.824,796.331 2189.38,791.709C2195.939,787.087 2204.479,784.776 2215,784.776L2226.494,784.776L2229.384,838.41L2207.893,838.41C2201.52,838.41 2196.123,839.236 2191.701,840.887C2187.284,842.539 2183.489,844.961 2180.317,848.153C2177.149,851.345 2174.095,855.343 2171.156,860.146L2171.156,978.534L2113.447,978.534Z" style="fill:rgb(250,245,237);fill-rule:nonzero;"/>
            </g>
            <g transform="matrix(0.202134,0,0,0.119664,2951.923694,1134.791003)">
                <path d="M37.603,833.859L37.603,0L225.767,0L312.845,514.585L321.384,573.832L327.425,573.832L335.329,514.281L426.163,0L610.253,0L610.253,833.859L498.978,833.859L498.978,253.253L499.338,170.057L493.603,170.057L480.293,261.636L381.83,833.859L267.074,833.859L167.215,255.916L154.931,170.057L148.699,170.057L149.069,253.253L149.069,833.859L37.603,833.859Z" style="fill:rgb(250,245,237);fill-rule:nonzero;"/>
            </g>
            <g transform="matrix(0.3915,0,0,0.385003,2558.443075,857.835278)">
                <path d="M1430.339,981.879C1418.044,981.879 1406.947,979.84 1397.049,975.763C1387.154,971.685 1378.694,965.886 1371.669,958.364C1364.647,950.843 1359.262,941.84 1355.515,931.356C1351.771,920.872 1349.899,909.254 1349.899,896.504L1349.899,869.534C1349.899,852.469 1353.182,837.565 1359.749,824.822C1366.315,812.075 1375.627,802.128 1387.685,794.981C1399.744,787.83 1413.962,784.254 1430.339,784.254C1443.617,784.254 1455.424,786.861 1465.76,792.075C1476.099,797.29 1496.3,817.102 1501.195,825.92L1503.451,825.92L1496.395,787.598L1548.696,787.598L1548.696,978.534L1496.395,978.534L1490.774,952.559L1488.611,952.559C1483.705,961.618 1476.085,968.769 1465.749,974.013C1455.413,979.257 1443.61,981.879 1430.339,981.879ZM1450.988,939.05C1460.031,939.05 1468.049,937.048 1475.041,933.045C1482.034,929.038 1487.302,923.525 1490.845,916.507L1490.845,849.409C1487.302,842.506 1482.034,837.051 1475.041,833.044C1468.049,829.037 1460.031,827.033 1450.988,827.033C1442.63,827.033 1435.345,828.6 1429.132,831.733C1422.922,834.862 1418.117,839.298 1414.715,845.042C1411.318,850.786 1409.619,857.773 1409.619,866.001L1409.619,900.131C1409.619,908.075 1411.318,915.006 1414.715,920.924C1418.117,926.842 1422.922,931.343 1429.132,934.428C1435.345,937.509 1442.63,939.05 1450.988,939.05Z" style="fill:rgb(250,245,237);fill-rule:nonzero;"/>
            </g>
            <g transform="matrix(0.202134,0,0,0.119664,2951.923694,1134.791003)">
                <path d="M1506.213,833.859C1483.945,833.859 1466.399,824.756 1453.575,806.55C1440.758,788.344 1434.35,759.927 1434.35,721.298C1434.35,721.298 1434.35,240.416 1434.35,94.025L1459.086,52.241C1492.009,52.241 1546.123,52.241 1546.123,52.241L1546.123,687.144L1618.314,687.144L1618.314,833.859L1506.213,833.859ZM1375.3,358.558L1375.3,219.546L1616.145,219.546L1616.145,358.558L1375.3,358.558Z" style="fill:rgb(250,245,237);fill-rule:nonzero;"/>
            </g>
            <g transform="matrix(0.202134,0,0,0.119664,2951.923694,1134.791003)">
                <path d="M1781.815,425.884L1781.815,833.859L1670.042,833.859L1670.042,219.546L1781.815,219.546L1757.442,343.912L1761.685,343.912C1775.44,313.505 1816.939,249.077 1837.437,232.968C1857.935,216.847 1880.944,208.787 1906.464,208.787C1936.315,208.787 1961.299,218.128 1981.417,236.811C2001.541,255.493 2016.717,282.111 2026.945,316.665C2037.18,351.207 2042.297,392.724 2042.297,441.218L2042.297,833.859L1930.249,833.859L1930.249,467.294C1930.249,442.13 1927.699,420.957 1922.599,403.776C1917.5,386.594 1909.952,373.583 1899.957,364.742C1889.969,355.889 1877.614,351.463 1862.893,351.463C1844.871,351.463 1828.99,358.338 1815.249,372.088C1801.509,385.837 1790.364,403.77 1781.815,425.884ZM1672.571,150.147L1728.997,0L1848.493,0L1779.561,150.147L1672.571,150.147Z" style="fill:rgb(250,245,237);"/>
            </g>
            <g transform="matrix(0.202134,0,0,0.119664,2916.609675,1134.791003)">
                <path d="M2684.334,833.859L2684.334,709.02L2868.383,358.558L2694.851,358.558L2694.851,219.546L3009.95,219.546L3009.95,341.472L2824.325,694.079L3014.288,694.079C3014.288,694.079 3014.288,777.533 3014.288,815.474L3003.404,833.859C2946.346,833.859 2684.334,833.859 2684.334,833.859Z" style="fill:rgb(250,245,237);fill-rule:nonzero;"/>
            </g>
        </g>
    </g>
</svg>
