<svg xmlns="http://www.w3.org/2000/svg" viewBox="0 0 640 520" role="img" aria-label="Abstract motion frames">
  <defs>
    <linearGradient id="bg" x1="84" y1="80" x2="566" y2="444" gradientUnits="userSpaceOnUse">
      <stop stop-color="#0a0a0a"/>
      <stop offset="0.52" stop-color="#211310"/>
      <stop offset="1" stop-color="#07161b"/>
    </linearGradient>
    <linearGradient id="line" x1="112" y1="245" x2="544" y2="245" gradientUnits="userSpaceOnUse">
      <stop stop-color="#7ee7ff"/>
      <stop offset="0.5" stop-color="#ff7646"/>
      <stop offset="1" stop-color="#fff1e6"/>
    </linearGradient>
  </defs>
  <rect width="640" height="520" rx="34" fill="url(#bg)"/>
  <g fill="none" stroke="url(#line)" stroke-linecap="round">
    <path d="M94 336c76-129 166-156 270-78 67 51 113 50 183-12" stroke-width="18" opacity="0.92"/>
    <path d="M92 384c84-115 176-127 277-36 62 56 109 58 174 10" stroke-width="6" opacity="0.42"/>
    <path d="M96 286c98-150 213-174 337-70 37 31 70 30 108-2" stroke-width="4" opacity="0.26"/>
  </g>
  <g transform="rotate(-8 320 260)">
    <rect x="137" y="112" width="122" height="170" rx="18" fill="#fff" fill-opacity="0.13" stroke="#fff" stroke-opacity="0.16"/>
    <rect x="263" y="92" width="122" height="170" rx="18" fill="#ff7646" fill-opacity="0.28" stroke="#ffb18f" stroke-opacity="0.24"/>
    <rect x="389" y="118" width="122" height="170" rx="18" fill="#94edff" fill-opacity="0.12" stroke="#94edff" stroke-opacity="0.18"/>
  </g>
  <circle cx="504" cy="238" r="8" fill="#ff7646"/>
  <circle cx="132" cy="338" r="5" fill="#9ceeff"/>
  <rect x="60" y="58" width="520" height="404" rx="28" fill="none" stroke="#fff" stroke-opacity="0.08"/>
</svg>
